HIERARCHY
ROOT Hips
{
	OFFSET -0.001795 -0.223333 0.028219
	CHANNELS 6 Xposition Yposition Zposition Zrotation Yrotation Xrotation 
	JOINT LeftUpLeg
	{
		OFFSET 0.069520 -0.091406 -0.006815
		CHANNELS 3 Zrotation Yrotation Xrotation
		JOINT LeftLeg
		{
			OFFSET 0.034277 -0.375199 -0.004496
			CHANNELS 3 Zrotation Yrotation Xrotation
			JOINT LeftFoot
			{
				OFFSET -0.013596 -0.397961 -0.043693
				CHANNELS 3 Zrotation Yrotation Xrotation
				JOINT LeftToe
				{
					OFFSET 0.026358 -0.055791 0.119288
					CHANNELS 3 Zrotation Yrotation Xrotation
					End Site
					{
						OFFSET 0.000000 0.000000 0.000000
					}
				}
			}
		}
	}
	JOINT RightUpLeg
	{
		OFFSET -0.067670 -0.090522 -0.004320
		CHANNELS 3 Zrotation Yrotation Xrotation
		JOINT RightLeg
		{
			OFFSET -0.038290 -0.382569 -0.008850
			CHANNELS 3 Zrotation Yrotation Xrotation
			JOINT RightFoot
			{
				OFFSET 0.015774 -0.398415 -0.042312
				CHANNELS 3 Zrotation Yrotation Xrotation
				JOINT RightToe
				{
					OFFSET -0.025372 -0.048144 0.123348
					CHANNELS 3 Zrotation Yrotation Xrotation
					End Site
					{
						OFFSET 0.000000 0.000000 0.000000
					}
				}
			}
		}
	}
	JOINT Spine
	{
		OFFSET -0.002533 0.108963 -0.026696
		CHANNELS 3 Zrotation Yrotation Xrotation
		JOINT Spine1
		{
			OFFSET 0.005487 0.135180 0.001092
			CHANNELS 3 Zrotation Yrotation Xrotation
			JOINT Spine2
			{
				OFFSET 0.001457 0.052922 0.025425
				CHANNELS 3 Zrotation Yrotation Xrotation
				JOINT Neck
				{
					OFFSET -0.002778 0.213870 -0.042857
					CHANNELS 3 Zrotation Yrotation Xrotation
					JOINT Head
					{
						OFFSET 0.005152 0.064970 0.051349
						CHANNELS 3 Zrotation Yrotation Xrotation
						End Site
						{
							OFFSET 0.000000 0.000000 0.000000
						}
					}
				}
				JOINT LeftShoulder
				{
					OFFSET 0.078845 0.121749 -0.034090
					CHANNELS 3 Zrotation Yrotation Xrotation
					JOINT LeftArm
					{
						OFFSET 0.090977 0.030469 -0.008868
						CHANNELS 3 Zrotation Yrotation Xrotation
						JOINT LeftForeArm
						{
							OFFSET 0.259612 -0.012772 -0.027456
							CHANNELS 3 Zrotation Yrotation Xrotation
							JOINT LeftHand
							{
								OFFSET 0.249234 0.008986 -0.001171
								CHANNELS 3 Zrotation Yrotation Xrotation
								End Site
								{
									OFFSET 0.000000 0.000000 0.000000
								}
							}
						}
					}
				}
				JOINT RightShoulder
				{
					OFFSET -0.081759 0.118833 -0.038615
					CHANNELS 3 Zrotation Yrotation Xrotation
					JOINT RightArm
					{
						OFFSET -0.096012 0.032551 -0.009143
						CHANNELS 3 Zrotation Yrotation Xrotation
						JOINT RightForeArm
						{
							OFFSET -0.253742 -0.013329 -0.021401
							CHANNELS 3 Zrotation Yrotation Xrotation
							JOINT RightHand
							{
								OFFSET -0.255298 0.007772 -0.005559
								CHANNELS 3 Zrotation Yrotation Xrotation
								End Site
								{
									OFFSET 0.000000 0.000000 0.000000
								}
							}
						}
					}
				}
			}
		}
	}
}
MOTION
Frames: 11
Frame Time: 0.050000
-0.030701 0.887632 -0.082688 -5.819784 44.372808 25.986879 27.977334 -7.250464 -62.809935 -11.286842 -0.073492 33.888744 -0.857547 2.636008 5.176674 0.000000 0.000000 0.000000 4.446676 -5.059962 -57.278957 0.479293 -3.254738 36.389105 -8.433306 -19.968495 -4.936050 0.000000 0.000000 0.000000 -8.509747 -6.192717 42.436739 -6.796074 2.440626 -0.973140 4.037803 5.340099 13.186679 -18.816243 12.742715 -12.955602 0.000000 0.000000 0.000000 -0.710821 7.369248 -3.489588 -51.881120 -2.880976 -7.360159 -72.581160 -72.614492 51.462967 0.000000 0.000000 0.000000 -14.821322 -1.241459 -2.256818 66.288097 -0.643196 -0.050958 36.956863 73.175480 39.665204 0.000000 0.000000 0.000000 
-0.031963 0.885882 -0.083212 -5.927089 46.344096 25.365585 28.013778 -7.933323 -63.103341 -11.142903 -0.370468 34.371984 -1.326442 1.579782 5.222411 0.000000 0.000000 0.000000 4.407838 -5.687835 -57.048366 0.667361 -3.722697 36.958142 -8.513838 -20.304728 -5.630001 0.000000 0.000000 0.000000 -8.798543 -6.582101 42.855638 -6.934324 2.494758 -1.277439 3.953211 6.218202 13.529653 -18.339780 12.576940 -12.112926 0.000000 0.000000 0.000000 -0.175350 7.201463 -3.281347 -52.645368 -4.493728 -7.056716 -74.060997 -74.251332 53.391753 0.000000 0.000000 0.000000 -15.583300 -1.368817 -2.585949 66.168078 -0.207767 0.772140 40.416001 73.811730 43.598897 0.000000 0.000000 0.000000 
-0.032421 0.884367 -0.083974 -6.227937 47.974108 24.536664 28.176097 -8.437776 -63.440874 -11.082797 -0.602505 34.964150 -1.603142 0.829028 5.124227 0.000000 0.000000 0.000000 4.367247 -6.134538 -56.708401 0.953412 -4.214235 37.429500 -8.479398 -20.370083 -6.259406 0.000000 0.000000 0.000000 -8.699546 -6.938696 42.862557 -7.681195 2.745624 -1.403414 3.914535 6.727301 13.999703 -19.015436 12.969584 -11.426547 0.000000 0.000000 0.000000 -0.762863 6.759160 -3.425821 -52.575242 -5.809084 -6.517019 -76.338186 -76.302955 56.752512 0.000000 0.000000 0.000000 -16.854385 -0.884686 -2.769125 66.907033 0.681500 1.907532 38.823627 75.278433 43.631346 0.000000 0.000000 0.000000 
-0.032110 0.882775 -0.084878 -6.485490 49.769204 23.696568 28.069618 -9.066213 -63.577549 -10.917618 -0.906688 35.314242 -2.140661 -0.107051 5.568478 0.000000 0.000000 0.000000 3.956327 -6.796030 -56.183628 1.442046 -4.868385 37.837691 -8.759085 -21.082000 -6.427633 0.000000 0.000000 0.000000 -8.957132 -7.269547 43.161897 -8.211093 2.930206 -1.736254 4.064240 7.601768 14.564110 -18.831654 12.918502 -11.317898 0.000000 0.000000 0.000000 -0.701463 5.956381 -3.207404 -53.209286 -7.390254 -6.126836 -76.071760 -78.084377 57.433683 0.000000 0.000000 0.000000 -17.914859 -0.321499 -2.979892 66.824766 1.800429 3.126682 31.903387 75.594723 38.486020 0.000000 0.000000 0.000000 
-0.030950 0.881622 -0.085465 -6.735129 51.214761 22.839103 27.854811 -9.579033 -63.449002 -10.733864 -1.223683 35.757239 -2.086862 -0.595744 4.819895 0.000000 0.000000 0.000000 3.709191 -7.149888 -55.347719 1.815617 -5.313568 37.584007 -8.928250 -21.615201 -6.678345 0.000000 0.000000 0.000000 -9.219931 -7.617353 43.636722 -8.722630 3.128854 -2.368926 4.048270 8.681415 14.860545 -19.016526 13.003589 -11.043724 0.000000 0.000000 0.000000 -1.131541 4.582331 -3.020255 -53.117494 -8.352723 -5.718815 -67.507105 -79.280807 49.999098 0.000000 0.000000 0.000000 -18.701689 0.823793 -2.996536 66.275063 2.593906 4.002995 23.296969 74.736990 31.169409 0.000000 0.000000 0.000000 
-0.028711 0.881488 -0.085826 -6.945010 52.372743 22.308070 28.076492 -9.876255 -63.534406 -11.194367 -1.191909 35.725955 -2.347697 -0.710344 5.406586 0.000000 0.000000 0.000000 3.510251 -7.301505 -54.394134 2.234247 -5.704841 37.134094 -8.970674 -22.209507 -7.622213 0.000000 0.000000 0.000000 -9.508264 -7.732363 43.693083 -9.540441 3.377255 -2.483996 3.978181 9.469154 14.841468 -18.331076 12.652450 -11.191335 0.000000 0.000000 0.000000 -1.087365 3.720352 -2.785671 -53.311490 -9.599703 -5.273487 -56.548320 -80.055485 40.230140 0.000000 0.000000 0.000000 -19.521275 1.714721 -3.047065 66.397426 3.477698 4.977681 16.447158 72.923562 24.903704 0.000000 0.000000 0.000000 
-0.025298 0.884278 -0.085934 -6.952721 53.713249 22.092975 27.220353 -10.435963 -62.826467 -10.034653 -1.712877 34.729606 -2.678505 -1.741909 5.111286 0.000000 0.000000 0.000000 3.496876 -7.227801 -52.944619 2.028558 -5.444459 35.261567 -9.249683 -23.056489 -7.464618 0.000000 0.000000 0.000000 -9.564470 -7.913679 43.576474 -10.199455 3.550585 -2.730448 4.013540 9.885351 14.713522 -18.087307 12.520363 -10.745360 0.000000 0.000000 0.000000 -1.351152 2.789331 -2.656652 -53.486897 -9.834823 -5.169447 -40.790857 -79.299871 25.760629 0.000000 0.000000 0.000000 -19.951865 3.010987 -2.897852 66.452696 4.078569 5.588328 12.582147 70.620489 20.833972 0.000000 0.000000 0.000000 
-0.021070 0.888410 -0.086313 -7.035686 54.433688 21.797728 26.270104 -10.736017 -61.669753 -8.859863 -2.128133 33.538542 -3.377151 -2.799880 5.758963 0.000000 0.000000 0.000000 3.500935 -6.886519 -51.247307 1.824047 -5.082268 33.270601 -9.429297 -23.980039 -7.716575 0.000000 0.000000 0.000000 -10.144563 -7.750078 43.512227 -10.940365 3.749404 -3.043466 4.159623 10.303790 14.488861 -18.103941 12.527537 -10.379447 0.000000 0.000000 0.000000 -1.925493 2.201982 -2.766367 -53.533591 -10.333522 -4.859049 -24.698267 -77.875687 11.759171 0.000000 0.000000 0.000000 -19.566325 3.582380 -2.747179 65.771297 4.311933 5.572125 12.240102 69.212076 20.030307 0.000000 0.000000 0.000000 
-0.016703 0.892656 -0.087085 -7.098964 55.142473 21.932066 25.539653 -10.987598 -60.880664 -7.720737 -2.427532 32.276787 -3.789529 -3.736954 5.800804 0.000000 0.000000 0.000000 3.401985 -6.678064 -49.926193 1.866547 -4.812795 31.368204 -9.779462 -25.066861 -7.547290 0.000000 0.000000 0.000000 -10.185997 -7.678748 43.066455 -11.538457 3.882250 -3.181396 4.305811 10.327785 14.323862 -17.683696 12.316757 -10.246067 0.000000 0.000000 0.000000 -2.198290 2.164260 -2.911317 -53.876890 -10.062208 -4.997131 -18.755001 -75.042042 6.501163 0.000000 0.000000 0.000000 -19.448023 3.626982 -2.757315 65.334194 4.102738 5.410065 12.891620 68.356211 20.173729 0.000000 0.000000 0.000000 
-0.013054 0.895314 -0.088275 -7.716131 55.829846 21.582354 25.359462 -11.100029 -60.348008 -6.701328 -2.685090 31.433568 -4.326964 -4.630096 6.224359 0.000000 0.000000 0.000000 3.583063 -6.504545 -49.166867 1.993124 -4.712788 30.211161 -10.065998 -25.670482 -7.026601 0.000000 0.000000 0.000000 -10.378676 -7.614190 42.806086 -11.885155 3.956523 -3.427078 4.513096 10.837917 14.425836 -16.836232 11.914196 -10.039575 0.000000 0.000000 0.000000 -2.796686 2.099056 -3.263876 -53.785708 -9.922957 -4.963995 -16.362058 -73.167271 4.262791 0.000000 0.000000 0.000000 -19.050900 3.865442 -2.703578 64.176055 3.896921 5.140308 14.397480 68.465828 21.447156 0.000000 0.000000 0.000000 
-0.010379 0.896306 -0.089599 -8.557601 56.575913 21.256583 25.769788 -11.226380 -60.584175 -6.333639 -2.754378 31.024628 -4.363082 -4.955782 6.029689 0.000000 0.000000 0.000000 3.773686 -6.479139 -48.864176 2.608053 -4.903456 29.403045 -10.039555 -25.785215 -7.251956 0.000000 0.000000 0.000000 -10.404691 -7.725759 42.772402 -12.173022 4.011629 -3.556967 4.585168 11.096405 14.727408 -15.793734 11.404768 -9.319446 0.000000 0.000000 0.000000 -2.628730 2.043147 -3.222388 -53.612676 -10.340383 -4.853842 -14.212330 -71.940370 2.428962 0.000000 0.000000 0.000000 -19.240689 3.892923 -2.807271 63.664689 4.086162 5.303878 14.761570 69.242617 22.233076 0.000000 0.000000 0.000000 
